<svg version="1.1" id="Layer_1" xmlns="http://www.w3.org/2000/svg" xmlns:xlink="http://www.w3.org/1999/xlink" x="0px" y="0px"
	 width="100%" viewBox="0 0 608 608" enable-background="new 0 0 608 608" xml:space="preserve">
<path fill="#11c4ff" opacity="0.8" stroke="none" 
	d="
M339.304108,105.623619 
	C382.306946,133.973877 410.351166,172.679871 421.437469,222.674957 
	C434.249359,280.451660 422.354675,333.322144 386.745026,380.657776 
	C384.067596,384.216858 384.486389,386.143738 387.351105,388.966644 
	C400.520477,401.943787 413.565338,415.047760 426.588257,428.172363 
	C428.414398,430.012695 430.082794,430.608643 432.758759,429.957825 
	C450.759277,425.579773 466.018005,430.172668 479.225677,443.396088 
	C503.008698,467.207520 527.216919,490.594482 551.264099,514.141785 
	C564.991577,527.583984 569.128052,546.970154 561.891663,564.186035 
	C554.810974,581.031372 538.041931,591.939758 519.501465,591.218445 
	C507.975098,590.769958 497.804535,586.617920 489.426575,578.394775 
	C465.050720,554.469360 440.603851,530.616150 416.218750,506.700104 
	C402.906799,493.644257 397.693481,478.183807 402.774628,459.858643 
	C403.394440,457.623199 403.012451,456.091949 401.430145,454.509674 
	C387.644318,440.723999 373.857788,426.938385 360.181091,413.044830 
	C357.809784,410.635864 356.281921,411.786255 354.284698,413.369202 
	C335.115570,428.562073 313.837372,440.037476 290.211426,446.142120 
	C218.675217,464.626099 155.502472,448.972504 102.614868,396.932404 
	C73.217873,368.006439 56.099751,332.215454 50.645596,291.254608 
	C43.134109,234.843063 57.655308,184.455063 94.635231,141.255829 
	C124.304733,106.596489 162.160217,85.743645 207.455872,78.537415 
	C254.737808,71.015198 298.428101,80.440964 339.304108,105.623619 
M85.141350,265.498718 
	C85.045876,275.839355 86.070038,286.021149 88.164360,296.194397 
	C102.077393,363.777557 161.509445,416.425385 236.015976,417.557953 
	C263.861633,417.981232 290.180389,411.089325 314.132996,396.683502 
	C358.638458,369.916473 384.031525,330.364624 389.402588,278.869019 
	C392.612701,248.091965 386.212830,218.736618 371.274567,191.228088 
	C339.303131,132.353348 269.352661,100.967087 204.017410,115.839951 
	C134.852280,131.584641 84.348633,194.001892 85.141350,265.498718 
z"/>
<path fill="#11c4ff" opacity="0.8" stroke="none" 
	d="
M267.000000,361.039856 
	C226.002899,361.026184 185.505798,361.016632 145.008698,360.993866 
	C137.747971,360.989777 137.732422,360.964508 137.726700,353.856750 
	C137.710587,333.858185 137.689957,313.859558 137.710800,293.861023 
	C137.718262,286.698914 139.766251,284.706024 146.955887,284.688965 
	C154.121994,284.671936 161.288300,284.659821 168.454300,284.694611 
	C175.641403,284.729492 178.056793,287.014282 178.099365,294.279755 
	C178.189194,309.611450 178.118927,324.944061 178.117386,340.276276 
	C178.116806,346.088928 182.555054,348.870056 187.894119,346.451752 
	C189.871429,345.556152 189.664169,343.818878 189.670517,342.183929 
	C189.700287,334.517914 189.634277,326.851227 189.711212,319.185852 
	C189.773407,312.989563 192.010803,310.745514 198.165726,310.697357 
	C206.164612,310.634766 214.165222,310.761932 222.163544,310.671051 
	C226.845047,310.617859 229.142853,312.700897 229.653564,317.406769 
	C230.484695,325.065094 230.022018,332.723999 230.010071,340.377289 
	C230.003876,344.352448 230.191208,346.992828 235.471985,346.865051 
	C240.189804,346.750977 241.817032,345.462555 241.773392,340.587219 
	C241.558640,316.590851 241.668808,292.591492 241.680862,268.593201 
	C241.685013,260.336884 243.341492,258.702423 251.665115,258.689362 
	C259.164520,258.677582 266.664032,258.714783 274.163422,258.699707 
	C278.504059,258.690948 281.133148,260.574036 281.442474,265.108154 
	C281.634918,267.928925 281.962677,270.751129 281.963104,273.572723 
	C281.966675,296.570374 281.934662,319.568176 281.827942,342.565521 
	C281.816315,345.066895 282.041504,347.084747 285.168518,346.640625 
	C288.250580,346.202911 292.640472,348.562042 293.587402,343.124359 
	C293.841400,341.666046 293.672272,340.131500 293.672363,338.631927 
	C293.674530,302.301178 293.668121,265.970398 293.676514,229.639633 
	C293.678406,221.505707 295.519073,219.692398 303.668243,219.690491 
	C310.667725,219.688858 317.667664,219.648300 324.666565,219.715012 
	C331.367798,219.778870 333.241211,221.742050 333.395111,228.318756 
	C334.389557,270.804230 333.586761,313.290039 333.548157,355.775940 
	C333.544250,360.095215 331.946075,361.087799 327.992676,361.062317 
	C307.829224,360.932373 287.664368,361.024841 267.000000,361.039856 
z"/>
<path fill="#11c4ff" opacity="0.8" stroke="none" 
	d="
M330.467224,163.765900 
	C337.622162,176.365311 331.896729,193.042648 314.948425,194.918442 
	C312.531036,195.186005 310.130463,195.022781 308.107178,194.032211 
	C304.073853,192.057556 300.957703,192.990021 297.677551,195.695038 
	C293.315948,199.291885 288.678345,202.557388 284.114288,205.903824 
	C282.044708,207.421249 281.279175,209.216492 281.472992,211.881866 
	C282.511780,226.168839 271.435913,236.029678 257.353210,233.264999 
	C254.366638,232.678696 252.425293,233.204346 250.342941,235.372162 
	C244.230042,241.735870 237.993271,247.987946 231.618622,254.088989 
	C229.286942,256.320618 228.686905,258.573669 229.343750,261.642090 
	C232.134735,274.680206 222.439209,284.122040 213.595001,285.351044 
	C201.111328,287.085876 191.255890,280.090454 189.827469,267.765167 
	C189.443588,264.452881 188.206787,262.619812 185.272690,261.470062 
	C183.264435,260.683136 181.274338,259.761841 179.441818,258.631897 
	C174.917572,255.842239 170.943161,255.351089 165.684006,258.075531 
	C155.955048,263.115509 143.552032,257.782166 139.430862,247.821930 
	C135.044357,237.220398 139.475113,225.836136 149.665329,221.525787 
	C160.378494,216.994217 171.950974,221.459869 176.387283,231.838745 
	C176.583481,232.297775 176.944885,232.770004 176.927261,233.224365 
	C176.452789,245.465836 187.651596,245.372726 194.508667,249.826767 
	C195.990311,250.789154 197.373825,249.694504 198.651733,248.909698 
	C203.725876,245.793442 209.165436,244.767807 214.930695,246.372650 
	C217.403442,247.060959 219.018143,246.156723 220.667419,244.491074 
	C227.228088,237.865280 233.829727,231.278946 240.494003,224.757507 
	C242.345917,222.945312 242.851227,221.143524 242.322479,218.519608 
	C238.996155,202.013184 253.114243,189.702408 269.117798,195.198700 
	C271.856781,196.139389 273.813232,195.886536 275.960938,194.140930 
	C278.671204,191.938110 281.479858,189.840775 284.364807,187.871872 
	C290.067261,183.980026 294.431641,180.252472 294.216675,171.784698 
	C294.010254,163.651871 300.036133,157.954651 308.265289,155.630585 
	C317.434509,153.041016 324.527039,156.360382 330.467224,163.765900 
M269.593689,214.347748 
	C269.763519,212.579422 269.090759,211.071335 268.044983,209.732346 
	C265.783051,206.836304 262.867340,205.443832 259.280853,206.783417 
	C255.784012,208.089539 254.054123,210.818863 254.364578,214.593597 
	C254.681641,218.448776 257.143036,220.729828 260.675812,221.350998 
	C265.468262,222.193649 268.006012,219.210236 269.593689,214.347748 
M154.649597,233.052155 
	C151.069778,234.892395 149.646393,237.951889 150.561752,241.709991 
	C151.367203,245.016769 153.897110,247.138199 157.286179,247.493484 
	C160.810455,247.862961 163.152786,245.769012 164.699585,242.741547 
	C165.950806,240.292542 165.809219,237.929535 164.056000,235.789307 
	C161.785995,233.018188 158.996185,231.577682 154.649597,233.052155 
M320.312042,177.879074 
	C322.059235,174.369415 321.151947,171.406876 318.261292,169.041031 
	C315.531128,166.806549 312.507324,166.589050 309.518860,168.547455 
	C306.718811,170.382416 305.757202,173.111343 306.368164,176.328476 
	C306.951904,179.402206 309.026184,181.321777 311.919647,182.090897 
	C315.436401,183.025696 317.934479,181.174728 320.312042,177.879074 
M207.999771,272.749451 
	C211.681641,273.346893 214.572388,272.189362 216.339859,268.812653 
	C217.455002,266.682220 218.029709,264.490967 216.442047,262.250732 
	C214.490387,259.496948 212.140411,257.627197 208.507141,258.325470 
	C205.198120,258.961426 203.158600,261.064636 202.507050,264.237793 
	C201.682343,268.254089 203.796082,270.858765 207.999771,272.749451 
z"/>
</svg>