<?xml version="1.0" standalone="no"?>
<!DOCTYPE svg PUBLIC "-//W3C//DTD SVG 20010904//EN"
 "http://www.w3.org/TR/2001/REC-SVG-20010904/DTD/svg10.dtd">
<svg version="1.0" xmlns="http://www.w3.org/2000/svg"
 width="400.000000pt" height="400.000000pt" viewBox="0 0 400.000000 400.000000"
 preserveAspectRatio="xMidYMid meet">

<g transform="translate(0.000000,400.000000) scale(0.100000,-0.100000)" fill="#11c4ff" opacity="1" stroke="none">
<path d="M925 2701 c-190 -55 -379 -222 -461 -408 -56 -125 -79 -311 -53 -422
18 -78 97 -175 196 -238 69 -44 113 -59 210 -73 80 -11 233 -4 233 11 0 4 -22
15 -48 23 -80 23 -126 52 -180 110 -91 100 -129 218 -118 361 13 157 53 253
150 353 71 75 121 111 214 156 102 50 154 61 284 61 64 0 114 3 110 7 -14 14
-118 49 -184 63 -95 20 -277 18 -353 -4z"/>
<path d="M2715 2705 c-97 -18 -215 -65 -315 -127 -62 -38 -132 -98 -260 -222
-567 -552 -692 -664 -832 -740 -199 -110 -445 -137 -621 -68 -42 17 -100 47
-127 66 -28 20 -55 36 -61 36 -21 0 38 -85 106 -154 203 -204 496 -268 791
-171 87 29 207 93 275 147 37 30 192 175 345 324 308 298 359 346 485 455 93
80 237 165 335 198 212 70 449 45 610 -66 35 -24 64 -40 64 -35 0 41 -167 214
-261 269 -150 89 -349 122 -534 88z"/>
<path d="M1240 2590 c-106 -19 -205 -65 -291 -134 -49 -38 -110 -106 -96 -106
3 0 40 17 83 37 72 34 86 37 164 37 184 0 289 -57 553 -297 48 -44 91 -77 96
-75 26 10 202 183 199 197 -2 9 -57 68 -123 131 -127 123 -190 161 -316 193
-72 19 -212 28 -269 17z"/>
<path d="M2960 2440 l-25 -7 30 -12 c17 -7 53 -21 80 -32 123 -46 226 -189
248 -342 14 -101 -8 -241 -53 -335 -48 -98 -180 -227 -283 -276 -118 -56 -231
-79 -347 -73 l-95 6 63 -30 c86 -40 188 -61 307 -63 111 -1 179 13 272 54 246
111 419 356 439 624 9 110 -8 206 -46 261 -73 106 -205 193 -335 220 -73 15
-212 18 -255 5z"/>
<path d="M2147 1857 c-54 -50 -98 -98 -97 -105 0 -7 51 -64 113 -126 92 -93
125 -119 187 -149 113 -54 187 -71 320 -71 130 0 180 15 302 86 61 36 184 145
175 154 -2 3 -39 -12 -82 -33 -72 -34 -85 -37 -169 -37 -180 0 -303 66 -553
298 -44 42 -85 76 -90 76 -4 0 -52 -42 -106 -93z"/>
</g>
</svg>
