<svg version="1.1" id="Layer_1" xmlns="http://www.w3.org/2000/svg" xmlns:xlink="http://www.w3.org/1999/xlink" x="0px" y="0px"
	 width="100%" viewBox="0 0 1024 736" enable-background="new 0 0 1024 736" xml:space="preserve">
<path fill="#11c4ff" opacity="0.8" stroke="none" 
	d="
M311.962708,70.901459 
	C335.562195,58.209579 360.356140,50.076431 386.442413,46.415085 
	C406.420441,43.611061 426.594757,43.113194 446.734894,45.237846 
	C513.902710,52.323612 565.737488,85.825424 606.596863,138.171021 
	C609.359680,141.710495 612.012146,145.345779 614.541870,149.055267 
	C618.854004,155.378448 619.977051,155.798553 626.736816,152.471191 
	C635.255920,148.277832 643.804260,144.203384 652.683228,140.764297 
	C670.646667,133.806488 689.360840,133.850891 707.952148,135.330765 
	C754.263611,139.017136 789.684082,161.618637 813.629944,200.929916 
	C833.666077,233.822556 838.424988,269.708069 828.866943,307.238892 
	C825.455017,320.636230 825.422668,320.642090 838.400452,324.758606 
	C871.689087,335.317719 900.614258,352.734161 923.338257,379.560883 
	C944.466614,404.503967 959.953857,432.616882 965.829163,464.941711 
	C974.677185,513.621277 967.830200,559.936035 940.270874,601.874817 
	C912.091064,644.757812 872.461853,671.098450 822.163147,681.519714 
	C809.045349,684.237488 795.884399,685.366455 782.518494,685.360901 
	C607.355591,685.288391 432.190491,685.778870 257.030975,684.997742 
	C201.581665,684.750488 152.621918,664.805054 112.886612,625.572510 
	C81.068520,594.157104 62.108212,555.752502 54.497086,511.399078 
	C45.646557,459.823059 55.904377,412.351807 83.196136,368.430084 
	C106.704384,330.597351 139.972046,303.942383 181.113022,287.059113 
	C189.237076,283.725159 190.614410,281.958344 190.663101,273.321594 
	C190.917236,228.244843 202.589951,186.399231 226.984039,148.445587 
	C248.312592,115.261444 276.778503,89.600685 311.962708,70.901459 
M432.500000,661.010071 
	C436.166382,660.992554 439.832764,660.960449 443.499146,660.959778 
	C556.989563,660.939087 670.480103,660.831787 783.970215,661.022034 
	C797.450867,661.044739 810.531616,658.897156 823.480042,656.006287 
	C847.111633,650.730347 868.168701,640.063293 886.599854,624.151123 
	C923.808655,592.027710 944.076904,552.332520 944.148193,502.383362 
	C944.190857,472.502594 937.547485,444.790741 922.077148,419.538177 
	C898.477966,381.016663 864.945251,355.572998 820.457458,345.224487 
	C803.282532,341.229340 796.390503,328.815887 801.853394,312.344238 
	C812.308228,280.821259 810.430786,249.954681 796.486267,220.012100 
	C789.515442,205.043823 779.371521,192.107254 765.944031,182.299210 
	C748.549072,169.593231 729.158813,161.563110 707.493347,159.693634 
	C683.565063,157.628906 660.556641,160.151703 639.773132,173.519470 
	C635.991943,175.951492 632.291138,178.503738 628.104675,180.249283 
	C619.748657,183.733276 612.220947,182.494156 605.268250,176.701797 
	C600.690613,172.888107 597.498535,168.016632 594.416992,163.082397 
	C578.888855,138.218597 558.647095,118.108887 534.097961,102.128998 
	C498.602722,79.023888 459.852539,67.295898 417.450897,68.397675 
	C399.614746,68.861130 382.047852,71.620750 364.767029,76.223450 
	C323.020203,87.342606 288.190796,109.309113 261.278778,143.122223 
	C230.861618,181.339355 216.023987,225.225662 215.604126,274.025177 
	C215.394669,298.371429 209.441925,302.742188 192.096130,309.479004 
	C166.147964,319.556854 143.287216,334.244385 124.354164,355.106903 
	C106.330154,374.967682 93.108490,397.434570 85.045822,422.833374 
	C78.041794,444.897339 75.115692,467.582397 77.035797,490.822205 
	C79.012451,514.746399 83.679459,537.951965 94.494843,559.574219 
	C107.278633,585.131775 124.550743,606.987488 147.566635,624.262451 
	C177.544449,646.762756 211.519684,659.371948 248.528122,660.286072 
	C309.487518,661.791809 370.506287,660.894775 432.500000,661.010071 
z"/>
<path fill="#11c4ff" opacity="0.8" stroke="none" 
	d="
M337.598328,438.575867 
	C339.392029,433.865265 341.103088,429.526062 342.673187,425.136444 
	C346.643463,414.036285 345.213531,403.228821 341.056335,392.472565 
	C337.246124,382.614044 332.045746,373.526093 326.268524,364.751678 
	C323.894867,361.146515 323.015350,357.613220 324.554718,353.456390 
	C328.022461,344.092194 331.182861,334.622864 335.559326,325.602661 
	C337.812897,320.957916 341.223846,318.482330 346.192780,317.565399 
	C355.540405,315.840485 364.563660,313.015900 373.528137,309.807861 
	C390.379059,303.777527 400.091797,291.496246 405.198914,275.005096 
	C407.658173,267.064056 409.820190,259.022095 411.831177,250.954651 
	C412.922974,246.574814 415.063507,243.480240 419.327728,241.729126 
	C428.569977,237.933762 437.756805,234.001785 446.935577,230.054306 
	C450.829651,228.379593 454.327209,228.751282 457.693573,231.376648 
	C461.516083,234.357864 465.641449,236.836884 470.188141,238.619690 
	C474.087097,240.148514 475.421997,243.129745 475.401917,247.314819 
	C475.282776,272.146912 475.348358,296.979919 475.352997,321.812622 
	C475.353271,323.312531 474.995544,324.929871 475.430389,326.292847 
	C477.798492,333.715424 473.863617,336.449829 467.690948,339.568024 
	C436.344330,355.403259 420.420746,388.016541 424.930237,423.128845 
	C429.409790,458.007721 455.842438,484.792023 485.029846,491.070892 
	C525.523499,499.782013 561.195740,483.199860 578.122986,446.826752 
	C580.204407,442.354126 582.778992,440.791626 588.172180,441.156342 
	C600.612122,441.997559 613.137573,441.612427 625.628601,441.649109 
	C636.784851,441.681885 648.090515,442.736755 659.057190,441.282104 
	C670.685425,439.739624 678.261780,442.352539 681.403442,454.182037 
	C681.565796,454.793213 682.051819,455.353271 682.484802,455.852295 
	C687.243042,461.335693 687.982727,467.091309 684.778076,473.811493 
	C680.987915,481.759460 678.399475,490.238770 674.366150,498.124451 
	C672.275269,502.212372 669.389893,504.374084 664.953491,505.375824 
	C653.909607,507.869568 642.978699,510.842438 632.602295,515.493530 
	C621.840393,520.317383 613.966553,527.903625 609.145447,538.895325 
	C604.433777,549.637573 600.599854,560.541321 599.268188,572.241211 
	C598.844910,575.959351 597.074951,578.475281 593.596191,580.375305 
	C583.599731,585.835388 572.760986,589.244934 562.374573,593.740051 
	C558.181763,595.554626 554.619690,593.338196 551.235352,591.072388 
	C541.649414,584.654480 531.507568,579.403076 520.697571,575.260742 
	C509.071747,570.805664 497.938171,571.813599 486.698700,576.353760 
	C476.767242,580.365479 467.230347,585.092407 458.601685,591.451721 
	C454.881287,594.193665 451.176788,594.807373 446.909698,593.225769 
	C437.539398,589.752502 428.228638,586.179077 419.274750,581.674805 
	C414.994629,579.521729 412.769623,576.336365 411.699005,571.833679 
	C409.199402,561.320984 406.727600,550.849304 402.284668,540.850830 
	C396.110809,526.957153 385.666595,518.345642 371.746094,513.165100 
	C363.296265,510.020477 354.684723,507.477356 345.905396,505.560059 
	C341.849030,504.674194 338.859131,502.844025 336.881104,499.227936 
	C331.504791,489.399536 327.340240,479.067261 324.058868,468.374420 
	C322.928741,464.691650 324.539856,461.558807 326.327423,458.465302 
	C330.077332,451.975861 333.748199,445.440704 337.598328,438.575867 
z"/>
<path fill="#11c4ff" opacity="0.8" stroke="none" 
	d="
M677.775757,330.323486 
	C687.348755,351.256775 693.869202,372.621979 695.323975,395.359589 
	C695.589172,399.504150 696.234192,403.624420 696.500549,407.768982 
	C696.735107,411.418030 695.003601,413.331360 691.157227,413.305359 
	C679.664856,413.227661 668.171875,413.258728 656.679199,413.224976 
	C651.958130,413.211090 649.979553,410.922699 649.815247,406.088684 
	C647.948242,351.157471 621.046875,311.581543 574.648682,284.032471 
	C555.446350,272.631042 534.734985,266.871857 512.366516,266.889313 
	C504.594482,266.895386 503.525696,265.820648 503.981689,258.124695 
	C504.603149,247.636658 504.581757,237.194565 503.980774,226.706345 
	C503.636536,220.698914 504.977081,219.668274 510.986359,219.959137 
	C539.835632,221.355499 567.027954,228.670105 592.710022,242.069290 
	C622.660339,257.695343 646.321655,280.144379 665.283386,307.731689 
	C670.064087,314.687134 673.532837,322.544342 677.775757,330.323486 
z"/>
<path fill="#11c4ff" opacity="0.8" stroke="none" 
	d="
M582.456543,384.620575 
	C573.057434,361.608185 557.282471,345.304749 534.852417,335.452271 
	C526.448059,331.760559 517.492859,331.027374 508.519135,330.448395 
	C505.437927,330.249603 503.873138,328.876465 503.906433,325.830841 
	C504.040985,313.514404 504.265839,301.198730 504.346832,288.882050 
	C504.372894,284.912170 506.035187,283.918518 509.942444,284.231506 
	C543.244385,286.898712 572.402649,299.174896 595.954773,322.904572 
	C614.565430,341.655426 626.165710,364.503326 630.289307,390.828156 
	C631.137024,396.240234 631.688965,401.707245 632.152893,407.167999 
	C632.504639,411.308258 630.356567,413.310120 626.184204,413.289276 
	C614.692322,413.231842 603.199890,413.187958 591.708130,413.233582 
	C588.079468,413.247955 586.827942,411.533325 586.614136,408.044617 
	C586.134949,400.227570 585.073669,392.474213 582.456543,384.620575 
z"/>
<path fill="#11c4ff" opacity="0.8" stroke="none" 
	d="
M503.975006,404.054688 
	C505.211700,391.295380 504.654785,378.993134 503.984222,366.683624 
	C503.712677,361.699860 503.759094,356.722412 504.621277,351.747253 
	C505.073120,349.140106 506.216461,348.490875 508.658844,348.716156 
	C541.204773,351.718536 563.895813,374.046783 568.129150,405.081665 
	C569.085571,412.093140 567.823730,413.239838 560.759399,413.230713 
	C544.768738,413.210052 528.778015,413.268982 512.787292,413.279816 
	C504.575500,413.285400 504.021912,412.719757 503.975006,404.054688 
z"/>
</svg>