<?xml version="1.0" standalone="no"?>
<!DOCTYPE svg PUBLIC "-//W3C//DTD SVG 20010904//EN"
 "http://www.w3.org/TR/2001/REC-SVG-20010904/DTD/svg10.dtd">
<svg version="1.0" xmlns="http://www.w3.org/2000/svg"
 width="620.000000pt" height="612.000000pt" viewBox="0 0 620.000000 612.000000"
 preserveAspectRatio="xMidYMid meet">

<g transform="translate(0.000000,612.000000) scale(0.100000,-0.100000)"
fill="#F8E7D3" stroke="none">
<path d="M4606 6047 c-49 -49 -27 -106 54 -137 74 -28 229 -110 315 -167 493
-324 815 -865 866 -1453 9 -112 15 -139 32 -157 28 -31 71 -30 104 3 26 26 26
27 19 134 -23 391 -172 784 -424 1120 -31 41 -106 126 -166 189 -185 189 -356
314 -579 422 -155 74 -186 81 -221 46z"/>
<path d="M4421 5501 c-22 -22 -27 -61 -11 -90 5 -10 64 -45 132 -79 264 -131
462 -330 597 -600 77 -154 131 -357 131 -493 0 -75 25 -109 79 -109 60 0 75
24 73 118 -9 357 -207 761 -497 1013 -139 122 -354 247 -441 257 -33 3 -46 0
-63 -17z"/>
<path d="M3187 5199 c-21 -5 -50 -15 -66 -24 -47 -24 -109 -103 -128 -162 -19
-60 -20 -39 62 -978 19 -214 46 -525 60 -690 14 -165 28 -325 32 -356 5 -51 3
-58 -16 -68 -11 -6 -37 -13 -57 -14 l-35 -2 -234 780 c-129 429 -242 797 -251
818 -21 46 -73 93 -133 120 -65 29 -154 20 -218 -22 -76 -48 -114 -118 -115
-206 0 -27 30 -187 66 -355 37 -168 101 -460 142 -650 41 -190 91 -417 110
-504 37 -166 37 -160 -6 -185 -22 -13 -98 -17 -109 -6 -5 6 -83 154 -172 330
-178 351 -223 427 -292 496 -124 124 -278 117 -338 -16 -44 -97 -12 -304 79
-505 158 -351 241 -576 421 -1150 406 -1296 610 -1592 1161 -1687 129 -22 435
-22 584 1 366 57 701 194 855 349 67 69 128 145 201 252 19 28 173 327 341
665 381 763 439 867 700 1266 187 285 220 361 193 440 -23 66 -72 94 -167 94
-163 -1 -389 -105 -500 -231 -26 -30 -124 -151 -218 -269 -94 -118 -182 -227
-195 -242 -33 -39 -95 -53 -164 -40 -69 14 -108 55 -144 153 -59 159 -64 226
-147 1879 -13 268 -22 305 -93 376 -42 41 -66 56 -111 69 -139 41 -272 -27
-334 -169 -9 -23 -14 -225 -18 -877 l-6 -848 -30 -12 c-24 -10 -37 -10 -70 3
-50 18 -32 -72 -143 703 -156 1096 -184 1279 -204 1319 -55 114 -183 182 -293
155z"/>
<path d="M885 4821 c-44 -28 -142 -132 -228 -243 -415 -535 -547 -1273 -341
-1910 36 -112 56 -138 102 -138 35 0 58 16 71 49 11 25 8 42 -22 138 -59 180
-79 304 -84 518 -4 144 -1 218 11 308 62 442 262 844 564 1133 40 39 52 57 52
80 -1 33 -15 55 -47 72 -30 16 -43 15 -78 -7z"/>
<path d="M1249 4377 c-45 -30 -160 -164 -221 -257 -238 -360 -305 -833 -179
-1241 27 -85 53 -119 92 -119 80 0 98 43 65 149 -47 147 -59 228 -59 386 -1
105 5 179 17 245 49 256 169 494 334 664 92 95 100 120 53 167 -35 35 -57 36
-102 6z"/>
</g>
</svg>
